<?xml version="1.0" encoding="UTF-8" standalone="no"?>
<!DOCTYPE svg PUBLIC "-//W3C//DTD SVG 1.1//EN" "http://www.w3.org/Graphics/SVG/1.1/DTD/svg11.dtd">
<svg width="100%" height="100%" viewBox="0 0 3508 2481" version="1.1" xmlns="http://www.w3.org/2000/svg" xmlns:xlink="http://www.w3.org/1999/xlink" xml:space="preserve" xmlns:serif="http://www.serif.com/" style="fill-rule:evenodd;clip-rule:evenodd;stroke-linecap:round;stroke-linejoin:round;stroke-miterlimit:1.5;">
    <g>
        <g transform="matrix(-0.999972,0.00753164,-0.00753164,-0.999972,2950.21,3323.19)">
            <text x="1468.85px" y="1667.15px" style="font-family:'SegoePrint', 'Segoe Print';font-size:11.245px;">S</text>
        </g>
        <g transform="matrix(-0.999814,0.0192723,-0.0192723,-0.999814,2955.16,3305.95)">
            <text x="1461.65px" y="1667.21px" style="font-family:'SegoePrint', 'Segoe Print';font-size:11.245px;">i</text>
        </g>
        <g transform="matrix(-0.999584,0.0288294,-0.0288294,-0.999584,2964.29,3291.79)">
            <text x="1458.41px" y="1667.26px" style="font-family:'SegoePrint', 'Segoe Print';font-size:11.245px;">r</text>
        </g>
        <g transform="matrix(-0.998684,0.0512886,-0.0512886,-0.998684,2980,3258.7)">
            <text x="1448.19px" y="1667.59px" style="font-family:'SegoePrint', 'Segoe Print';font-size:11.245px;">C</text>
        </g>
    </g>
    <g transform="matrix(2.88469,0,0,2.88469,-748.28,-2900.94)">
        <g transform="matrix(1,0,0,1,18.4511,-4.63659)">
            <g transform="matrix(0.42841,0,0,0.374585,153.697,1215.99)">
                <ellipse cx="1560.29" cy="808.367" rx="396.639" ry="156.487" style="fill:rgb(253,253,160);"/>
            </g>
            <g transform="matrix(0.449815,0,0,0.52304,110.669,905.169)">
                <rect x="1203.93" y="808.367" width="752.995" height="395.09" style="fill: rgb(253,253,160);"/>
                <clipPath id="_clip1">
                    <rect x="1203.93" y="808.367" width="752.995" height="395.09"/>
                </clipPath>
                <g clip-path="url(#_clip1)">
                    <g transform="matrix(0.949219,0,0,0.929978,82.8094,30.8607)">
                        <path d="M1104.62,841.56C1050.38,858.59 1108.16,1078.33 1119.53,1090.37C1130.9,1102.42 1158.4,999.653 1176.64,992.442C1194.89,985.232 1208.9,1044.61 1229,1047.11C1249.1,1049.61 1279.51,1000.24 1297.22,1007.45C1314.94,1014.66 1318.9,1088.26 1335.3,1090.37C1351.69,1092.49 1376.55,1029.99 1395.59,1020.14C1411.89,1011.7 1455.98,1019.39 1474.34,1019.16C1495.61,1018.89 1531.46,949.817 1553.67,950.082C1574.09,950.325 1594.44,982.914 1614.83,981.813C1639.3,980.491 1677.05,940.562 1700.5,942.149C1721.17,943.547 1735.16,976.909 1753.94,973.88C1772.71,970.851 1794.02,924.502 1813.15,923.973C1832.27,923.444 1853.08,974.024 1868.68,970.707C1884.28,967.39 1892.04,907.509 1906.75,904.072C1921.46,900.634 1947.06,970.514 1956.93,950.082C1968.3,926.548 2037.22,770.353 1974.98,762.869C1838.63,746.474 1242.12,798.387 1104.62,841.56Z" style="fill:rgb(235, 135, 159);"/>
                    </g>
                </g>
            </g>
            <g transform="matrix(0.42841,0,0,0.316983,153.697,1074.42)">
                <ellipse cx="1560.29" cy="808.367" rx="396.639" ry="156.487" style="fill:rgb(235, 135, 159);"/>
            </g>
            <g transform="matrix(0.643561,-0.116095,0.110465,0.625178,-890.233,984.943)">
                <path d="M2386.47,780.579C2403.04,780.849 2420.94,784.744 2434.12,794.806C2448.5,805.792 2466.33,824.502 2472.76,846.495C2480.54,873.12 2476.1,952.909 2476.1,952.909C2476.1,952.909 2496.28,952.93 2506.33,953.761C2516.63,954.613 2529.44,956.068 2537.85,958.02C2544.46,959.555 2553.18,962.318 2556.8,965.473C2559.77,968.058 2560.65,973.163 2559.57,976.948C2558.47,980.817 2554.51,986.133 2550.2,988.684C2545.16,991.669 2536.45,993.456 2529.33,994.859C2519.43,996.811 2503.74,999.545 2490.79,1000.4C2470.81,1001.71 2436.57,1002.73 2409.45,1002.74C2401.76,1002.74 2360.76,1002.74 2353.07,1002.74C2325.95,1002.73 2291.71,1001.71 2271.73,1000.4C2258.78,999.545 2243.09,996.811 2233.18,994.859C2226.07,993.456 2217.36,991.669 2212.32,988.684C2208.01,986.133 2204.05,980.817 2202.95,976.948C2201.87,973.163 2202.75,968.058 2205.72,965.473C2209.34,962.318 2218.05,959.555 2224.67,958.02C2233.08,956.068 2245.89,954.613 2256.18,953.761C2266.23,952.93 2286.42,952.909 2286.42,952.909C2286.42,952.909 2281.98,873.12 2289.76,846.495C2292.96,835.536 2299.18,823.593 2307.52,813.974C2315.91,804.288 2326.42,796.95 2333.12,793.159C2348.34,784.546 2369.64,780.304 2386.47,780.579Z" style="stroke:black;stroke-width:0.54px;"/>
            </g>
            <g transform="matrix(0.889794,0,0,0.899064,-603.255,502.771)">
                <g transform="matrix(0.22209,0.0912749,-0.105644,0.257053,1269.88,686.998)">
                    <g transform="matrix(1,0,0,1,17.0586,11.3724)">
                        <path d="M2042.76,467.744C2134.7,467.744 2209.34,535.281 2209.34,618.467C2209.34,642.843 2202.93,665.876 2191.56,686.26C2164.11,735.435 2107.76,769.189 2042.76,769.189C1950.81,769.189 1876.17,701.653 1876.17,618.467C1876.17,535.281 1950.81,467.744 2042.76,467.744ZM2042.76,496.951C2116.88,496.951 2177.06,551.4 2177.06,618.467C2177.06,685.533 2116.88,739.982 2042.76,739.982C1968.63,739.982 1908.45,685.533 1908.45,618.467C1908.45,551.4 1968.63,496.951 2042.76,496.951Z" style="fill:rgb(197, 87, 112);stroke:black;stroke-width:6.19px;"/>
                    </g>
                    <g transform="matrix(1,0,0,1,-57.6744,8.12316)">
                        <rect x="2272.17" y="591.683" width="44.677" height="17.871" style="stroke:black;stroke-width:6.19px;"/>
                    </g>
                </g>
                <g transform="matrix(0.436898,0,0,0.616091,795.378,794.945)">
                    <ellipse cx="1972.99" cy="392.742" rx="16.061" ry="22.807" style="stroke:black;stroke-width:3.02px;"/>
                </g>
                <g transform="matrix(0.462591,0,0,0.69595,677.371,763.581)">
                    <ellipse cx="1972.99" cy="392.742" rx="16.061" ry="22.807" style="stroke:black;stroke-width:2.73px;"/>
                </g>
                <g transform="matrix(0.175926,-0.0120091,0.0120091,0.175926,1436.53,914.746)">
                    <path d="M1031.36,1206.04C1027.71,1224.75 1021.68,1246.74 1015.46,1264.67C1008.31,1285.23 1000.14,1307.28 984.2,1322.88C959.388,1347.15 926.526,1364.16 893.952,1371.78C849.68,1382.14 797.012,1381.74 751.834,1372.38C731.293,1368.12 710.004,1358.99 691.873,1348.68C668.335,1335.3 641.869,1316.63 629.429,1291.44C617.867,1268.03 610.968,1242.99 607.723,1217.1C604.23,1189.22 616.576,1160.02 632.868,1138.01C642.23,1125.36 653.943,1113.82 668.893,1108.07C713.791,1090.8 767.147,1115.37 783.287,1160.44C784.856,1164.83 786.422,1169.26 787.177,1173.86C788.024,1179 788.19,1184.27 788.061,1189.48C787.953,1193.84 787.264,1198.18 786.467,1202.46C785.775,1206.19 783.397,1210.18 779.735,1206C773.267,1198.61 770.413,1188.69 765.032,1180.47C753.053,1162.19 750.648,1154.7 730.941,1153.31C723.615,1152.79 712.169,1153.13 705.068,1155.6C700.333,1157.24 695.768,1159.53 691.652,1162.39C681.384,1169.52 671.49,1181.76 668.893,1194.3C667.53,1200.87 669.286,1211.1 670.696,1217.14C675.524,1237.82 685.152,1258.98 699.403,1274.9C716.714,1294.23 748.852,1319.02 773.64,1320.76C810.176,1323.33 847.681,1320.8 883.67,1314.13C914.101,1308.5 939.629,1282.31 962.267,1260.58C983.224,1240.46 991.268,1212.25 1008.65,1189.22C1012.38,1184.27 1024.24,1168.06 1029.86,1163.54C1043.09,1174.02 1037.46,1192.03 1031.36,1206.04Z" style="stroke:black;stroke-width:9.16px;"/>
                </g>
                <g transform="matrix(-0.175949,0.0116701,0.0116701,0.175949,1811.58,888.253)">
                    <path d="M1031.36,1206.04C1027.71,1224.75 1021.68,1246.74 1015.46,1264.67C1008.31,1285.23 1000.14,1307.28 984.2,1322.88C959.388,1347.15 926.526,1364.16 893.952,1371.78C849.68,1382.14 797.012,1381.74 751.834,1372.38C731.293,1368.12 710.004,1358.99 691.873,1348.68C668.335,1335.3 641.869,1316.63 629.429,1291.44C617.867,1268.03 610.968,1242.99 607.723,1217.1C604.23,1189.22 616.576,1160.02 632.868,1138.01C642.23,1125.36 653.943,1113.82 668.893,1108.07C713.791,1090.8 767.147,1115.37 783.287,1160.44C784.856,1164.83 786.422,1169.26 787.177,1173.86C788.024,1179 788.19,1184.27 788.061,1189.48C787.953,1193.84 787.264,1198.18 786.467,1202.46C785.775,1206.19 783.397,1210.18 779.735,1206C773.267,1198.61 770.413,1188.69 765.032,1180.47C753.053,1162.19 750.648,1154.7 730.941,1153.31C723.615,1152.79 712.169,1153.13 705.068,1155.6C700.333,1157.24 695.768,1159.53 691.652,1162.39C681.384,1169.52 671.49,1181.76 668.893,1194.3C667.53,1200.87 669.286,1211.1 670.696,1217.14C675.524,1237.82 685.152,1258.98 699.403,1274.9C716.714,1294.23 748.852,1319.02 773.64,1320.76C810.176,1323.33 847.681,1320.8 883.67,1314.13C914.101,1308.5 939.629,1282.31 962.267,1260.58C983.224,1240.46 991.268,1212.25 1008.65,1189.22C1012.38,1184.27 1024.24,1168.06 1029.86,1163.54C1043.09,1174.02 1037.46,1192.03 1031.36,1206.04Z" style="stroke:black;stroke-width:9.15px;"/>
                </g>
                <g transform="matrix(0.175926,-0.0120091,0.0120091,0.175926,1436.53,914.746)">
                    <path d="M1026.42,1168.25C1026.82,1166.96 1027.43,1166.1 1028.26,1165.72" style="stroke:black;stroke-width:9.16px;"/>
                </g>
                <g transform="matrix(0.175926,-0.0120091,0.0120091,0.175926,1436.53,914.746)">
                    <path d="M1028.26,1165.72C1029.11,1165.34 1030.19,1165.49 1031.47,1166.1" style="stroke:black;stroke-width:9.16px;"/>
                </g>
                <g transform="matrix(0.175926,-0.0120091,0.0120091,0.175926,1436.53,914.746)">
                    <path d="M1031.47,1166.1C1031.64,1166.13 1031.8,1166.19 1031.96,1166.26" style="stroke:black;stroke-width:9.16px;"/>
                </g>
                <g transform="matrix(0.175926,-0.0120091,0.0120091,0.175926,1436.53,914.746)">
                    <path d="M1031.96,1166.26C1032.25,1166.39 1032.51,1166.58 1032.76,1166.82" style="stroke:black;stroke-width:9.16px;"/>
                </g>
            </g>
        </g>
        <g transform="matrix(0.18591,-0.292591,0.292591,0.18591,-39.7481,1406.89)">
            <g transform="matrix(0.181435,0.983403,-0.983403,0.181435,2466.72,1368.35)">
                <text x="411.408px" y="2165.9px" style="font-family:'SegoePrint-Bold', 'Segoe Print';font-weight:700;font-size:250px;stroke:black;stroke-width:1px;stroke-linecap:butt;stroke-miterlimit:2;">S</text>
            </g>
            <g transform="matrix(0.305277,0.952264,-0.952264,0.305277,2518.58,1192.18)">
                <text x="442.226px" y="2322.21px" style="font-family:'SegoePrint-Bold', 'Segoe Print';font-weight:700;font-size:250px;stroke:black;stroke-width:1px;stroke-linecap:butt;stroke-miterlimit:2;">i</text>
            </g>
            <g transform="matrix(0.402789,0.915293,-0.915293,0.402789,2464.73,1005.95)">
                <text x="461.503px" y="2391.71px" style="font-family:'SegoePrint-Bold', 'Segoe Print';font-weight:700;font-size:250px;stroke:black;stroke-width:1px;stroke-linecap:butt;stroke-miterlimit:2;">r</text>
            </g>
            <g transform="matrix(0.611873,0.790956,-0.790956,0.611873,2271.28,565.537)">
                <text x="559.391px" y="2597.06px" style="font-family:'SegoePrint-Bold', 'Segoe Print';font-weight:700;font-size:250px;stroke:black;stroke-width:1px;stroke-linecap:butt;stroke-miterlimit:2;">C</text>
            </g>
            <g transform="matrix(0.728499,0.685047,-0.685047,0.728499,2054.36,285.725)">
                <text x="666.713px" y="2734.63px" style="font-family:'SegoePrint-Bold', 'Segoe Print';font-weight:700;font-size:250px;stroke:black;stroke-width:1px;stroke-linecap:butt;stroke-miterlimit:2;">a</text>
            </g>
            <g transform="matrix(0.826077,0.563557,-0.563557,0.826077,1732.34,57.3918)">
                <text x="773.188px" y="2835.32px" style="font-family:'SegoePrint-Bold', 'Segoe Print';font-weight:700;font-size:250px;stroke:black;stroke-width:1px;stroke-linecap:butt;stroke-miterlimit:2;">k</text>
            </g>
            <g transform="matrix(0.896736,0.442565,-0.442565,0.896736,1383.91,-94.7384)">
                <text x="894.971px" y="2918.2px" style="font-family:'SegoePrint-Bold', 'Segoe Print';font-weight:700;font-size:250px;stroke:black;stroke-width:1px;stroke-linecap:butt;stroke-miterlimit:2;">e</text>
            </g>
        </g>
        <g transform="matrix(0.876845,0.0227545,-0.0230171,0.886967,75.1495,58.9007)">
            <path d="M658.27,1788.07C571.281,1718.95 515.465,1612.25 515.465,1492.62C515.465,1284.47 684.463,1115.47 892.622,1115.47C1100.78,1115.47 1269.78,1284.47 1269.78,1492.62C1269.78,1578.99 1240.69,1658.62 1191.78,1722.23" style="fill:none;stroke:black;stroke-width:1.64px;"/>
        </g>
    </g>
</svg>
